<?xml version="1.0" encoding="UTF-8" standalone="no"?>
<!-- Created with Inkscape (http://www.inkscape.org/) -->

<svg
   version="1.1"
   id="svg1"
   width="683.10687"
   height="983.74945"
   viewBox="0 0 683.10687 983.74945"
   sodipodi:docname="leg.svg"
   inkscape:version="1.4.2 (f4327f4, 2025-05-13)"
   xmlns:inkscape="http://www.inkscape.org/namespaces/inkscape"
   xmlns:sodipodi="http://sodipodi.sourceforge.net/DTD/sodipodi-0.dtd"
   xmlns="http://www.w3.org/2000/svg"
   xmlns:svg="http://www.w3.org/2000/svg">
  <defs
     id="defs1" />
  <sodipodi:namedview
     id="namedview1"
     pagecolor="#505050"
     bordercolor="#ffffff"
     borderopacity="1"
     inkscape:showpageshadow="0"
     inkscape:pageopacity="0"
     inkscape:pagecheckerboard="1"
     inkscape:deskcolor="#505050"
     inkscape:zoom="0.79589844"
     inkscape:cx="332.95706"
     inkscape:cy="489.38405"
     inkscape:window-width="1920"
     inkscape:window-height="1017"
     inkscape:window-x="-8"
     inkscape:window-y="-8"
     inkscape:window-maximized="1"
     inkscape:current-layer="svg1" />
  <path
     style="fill:#000000"
     d="m 153.85974,982.14031 c -3.0233,-1.8763 -5.8728,-6.25591 -5.8728,-9.02627 0,-1.04576 1.6154,-5.90751 3.58978,-10.80389 6.96022,-17.26106 10.19534,-41.69057 8.93697,-67.48614 -1.3617,-27.91366 -6.73653,-50.61083 -18.47088,-78 -1.53164,-3.575 -4.47787,-10.50637 -6.54718,-15.40304 -2.06931,-4.89667 -5.01369,-11.42505 -6.54305,-14.50751 -4.48183,-9.03318 -32.97464,-71.12226 -35.14592,-76.58695 -1.09211,-2.74863 -2.3225,-5.44863 -2.73421,-6 -0.89665,-1.20081 -12.86808,-31.10091 -16.41663,-41.0025 -1.37976,-3.85 -7.01288,-19.825 -12.51802,-35.5 C 47.921613,587.34574 44.759859,580.30643 22.174675,538.85033 16.339607,528.13981 9.8296065,515.08981 7.7080085,509.85033 3.0179975,498.26793 -0.01757146,483.57365 7.6539638e-5,472.53855 0.01396654,463.85623 2.7125285,448.69099 5.2876065,442.82401 l 1.536185,-3.5 0.08157,6.64466 c 0.104673,8.52619 3.031653,17.93261 7.9122225,25.42747 5.926663,9.10129 14.521749,15.07743 26.47533,18.40821 l 5.805978,1.61779 -4.04689,5.08268 c -5.947714,7.47002 -11.277209,9.55272 -18.87143,7.37472 -3.102817,-0.88987 -3.25385,-0.81762 -2.613056,1.25 0.712458,2.29887 13.111453,26.45804 14.472975,28.20028 1.576962,2.01793 18.769748,37.24371 22.448569,45.99419 6.83387,16.25514 16.92024,40.0765 30.0626,71 2.57123,6.05 6.16273,14.6 7.98113,19 6.94581,16.80687 13.4355,32.31777 16.94504,40.5 4.47673,10.43717 18.21381,44.54105 24.02752,59.65109 4.22737,10.98708 12.8996,36.2102 17.82672,51.84891 9.60864,30.49787 15.16484,66.84851 15.79079,103.30889 0.1351,7.8699 0.54593,14.49448 0.91294,14.72131 2.01855,1.24753 2.66016,-41.82275 0.91661,-61.5302 -2.47813,-28.01034 -13.01382,-72.68347 -24.52733,-104 -11.4942,-31.26403 -17.82553,-46.8741 -31.43344,-77.5 -5.98423,-13.46807 -15.11197,-34.20223 -20.03033,-45.5 -3.92231,-9.00976 -14.52544,-33.16092 -18.00032,-41 -5.4142,-12.21406 -12.71865,-31.49076 -15.35389,-40.51943 -8.867253,-30.38034 -7.229786,-57.0521 4.6647,-75.98057 8.8822,-14.13483 17.24446,-20.95084 37.71514,-30.7413 22.48865,-10.75559 24.64903,-11.7587 25.32447,-11.7587 0.34731,0 -0.71184,2.1182 -2.35368,4.70711 -8.15327,12.85637 -11.57745,28.78434 -10.68191,49.6881 0.63584,14.84197 3.52478,26.76952 14.67891,60.60479 14.90181,45.20363 29.1019,98.44177 39.07559,146.5 4.61795,22.25158 14.33117,74.07146 15.37024,82 0.28832,2.2 1.44261,10.075 2.56509,17.5 2.01349,13.31891 3.66633,28.69343 6.55779,61 1.57376,17.58367 2.00336,59.39898 0.86911,84.59447 l -0.67952,15.09447 -5.61305,3.05719 c -13.19345,7.18597 -31.14491,10.35307 -37.24024,6.57017 z m 63.11756,-46.56888 c -0.0315,-85.70279 -11.61413,-162.78349 -43.8049,-291.51428 -5.40055,-21.59678 -9.52639,-38.92178 -9.16852,-38.5 0.35786,0.42177 4.40777,5.71686 8.9998,11.76686 13.13517,17.30559 34.44475,37.86688 51.55024,49.74007 7.33493,5.09128 19.07085,12.11611 25.53938,15.28722 l 5.60636,2.74845 0.6032,38.11213 c 0.6277,39.65992 1.05268,46.09604 5.21436,78.96877 5.25596,41.51629 11.66055,64.83636 21.26921,77.44439 3.56395,4.67645 3.30712,10.6083 -0.81055,18.72076 -8.16886,16.09394 -31.81225,39.98344 -57.73894,58.33994 l -7.25,5.13311 z m 36.50964,-269.58326 c -10.41024,-5.94842 -14.33457,-8.54809 -26,-17.22369 -39.40523,-29.30574 -69.9663,-72.30801 -77.56845,-109.14604 -2.73681,-13.26186 -2.2951,-32.24992 1.0164,-43.69224 6.67932,-23.07927 28.44466,-43.39871 71.05205,-66.33199 3.575,-1.92423 9.05587,-4.88711 12.17972,-6.58418 3.12385,-1.69707 15.04885,-7.9158 26.5,-13.81938 60.90065,-31.39705 79.20568,-42.44801 113.43619,-68.48277 4.36362,-3.31884 17.20131,-10.63217 31.38409,-17.87878 13.2,-6.74447 24.45,-12.59151 25,-12.99343 0.55,-0.40191 7.3,-4.00716 15,-8.01166 7.7,-4.0045 14.45,-7.60326 15,-7.99725 2.82387,-2.02287 85.79524,-44.00275 86.96948,-44.00275 1.77535,0 -22.25021,26.87901 -39.42403,44.10632 -35.53627,35.64695 -56.55905,51.76033 -99.04545,75.91561 -20.47164,11.63897 -52.81066,27.65131 -73.69764,36.49064 -9.7913,4.14366 -19.33384,8.22408 -21.20565,9.0676 -4.09681,1.8462 -37.91563,14.41983 -38.78449,14.41983 -0.73911,0 -9.25696,3.11178 -40.81222,14.90968 -30.84356,11.53181 -30.5,11.39331 -30.5,12.29475 0,0.42128 5.4693,6.06013 12.15401,12.53077 25.48131,24.66532 38.76576,43.87223 47.75589,69.04636 7.05651,19.75961 8.58837,28.98338 8.58929,51.71844 8.8e-4,21.65585 -0.93222,28.16904 -7.66456,53.5 -5.44705,20.49497 -6.32926,23.3325 -7.33978,23.60756 -0.54717,0.14894 -2.34485,-0.50059 -3.99485,-1.4434 z M 132.56476,505.44446 c -0.90713,-5.246 -0.17152,-17.61948 1.54384,-25.96844 0.58219,-2.8336 2.79965,-8.75201 4.92769,-13.15201 8.8665,-18.33262 20.77137,-30.16434 64.82084,-64.42252 7.28094,-5.66253 10.84844,-7.71792 16,-9.21827 9.92829,-2.89153 49.35402,-13.73982 59.62981,-16.40759 4.95,-1.28511 10.9827,-3.04225 13.40599,-3.90477 2.42329,-0.86251 4.53302,-1.44117 4.68828,-1.28592 0.15526,0.15526 -18.66086,10.62257 -41.81359,23.26068 -46.54585,25.40745 -60.64622,33.53678 -73.8199,42.55961 -10.83176,7.41881 -25.15456,20.74431 -31.95842,29.73316 -8.79681,11.62179 -15.0672,27.1177 -16.26103,40.18562 -0.30622,3.35195 -0.35544,3.2936 -1.16351,-1.37955 z M 49.98694,454.00079 c -8.257433,-2.1697 -15.067378,-6.87082 -19.51078,-13.46889 -5.897568,-8.75738 -4.56717,-13.79632 8.085287,-30.62332 14.78835,-19.66761 34.687073,-38.81719 60.886673,-58.5944 11.91409,-8.99355 35.70665,-24.37433 62.53882,-40.42843 31.94842,-19.11522 27.94377,-16.5999 51.5,-32.34712 25.69565,-17.17741 24.27748,-16.18188 43,-30.18538 15.39572,-11.51523 44.1941,-34.35563 72.45086,-57.46179 7.39797,-6.04949 13.59927,-10.85065 13.78066,-10.66926 0.18139,0.18138 -0.97355,3.2035 -2.56653,6.7158 -1.59299,3.51231 -4.27505,9.53601 -5.96015,13.38601 -22.59194,51.6166 -34.83755,75.20564 -50.6145,97.5 -9.20742,13.01097 -11.93615,16.50305 -23.43821,29.99487 -35.30438,41.41177 -88.70421,84.59298 -133.65213,108.07637 -33.84079,17.6804 -57.13565,23.19368 -76.5,18.10554 z M 32.217834,384.82401 c 20.126394,-38.68487 42.941826,-69.38842 76.264486,-102.63187 17.00148,-16.96108 17.44103,-17.31038 44.08865,-35.03628 26.61327,-17.70305 54.8715,-35.82102 69.41597,-44.50656 32.36825,-19.32939 49.47523,-28.77868 80.5,-44.46533 61.68681,-31.18991 84.18424,-42.66945 85.5,-43.62723 2.29379,-1.66971 -39.41328,38.91572 -48.5,47.19568 -7.23182,6.58975 -23.51817,19.87585 -50.80509,41.44586 -12.20361,9.64682 -52.62577,40.10943 -58.69491,44.23316 -33.31196,22.63413 -58.35186,38.87401 -83.74328,54.31256 -9.45561,5.74923 -47.29503,30.96796 -54.76391,36.49835 -19.02933,14.09043 -33.06814,26.08817 -48.618888,41.55032 L 26.234784,396.32401 Z M 251.22506,360.95537 c 11.88562,-12.09554 26.59178,-29.20295 36.18595,-42.09444 21.31743,-28.6438 34.30052,-52.22433 58.90813,-106.99191 3.57212,-7.95025 7.68323,-15.94444 9.13578,-17.76488 4.23826,-5.31164 13.67013,-9.67343 43.03202,-19.90026 36.84567,-12.83346 90.6219,-34.18611 105.5872,-41.92497 1.60204,-0.82844 2.9128,-1.35812 2.9128,-1.17706 0,1.01631 -7.32528,21.35177 -9.98613,27.72216 -21.79576,52.18156 -68.46289,115.51992 -115.92317,157.33523 -21.15107,18.63533 -23.05931,19.67499 -56.50762,30.78677 -24.43029,8.11592 -39.81364,12.60455 -67.94612,19.82564 l -14.86304,3.81507 z M 418.1675,303.14784 c 16.31364,-16.94001 38.4308,-44.00946 53.37298,-65.32383 7.61379,-10.86074 22.41183,-36.39868 30.30492,-52.2992 7.73056,-15.57311 17.60692,-40.36587 22.04298,-55.33484 1.1628,-3.92372 2.67317,-7.58151 3.35637,-8.12843 0.6832,-0.54692 7.76719,-4.34424 15.74219,-8.43848 14.7765,-7.58602 27.61078,-15.306757 38.67554,-23.266117 l 6.17554,-4.44232 2.99617,7.20469 c 9.48378,22.805067 8.95133,54.979317 -1.40208,84.723897 -6.38934,18.35611 -19.65718,42.94458 -28.64149,53.07952 -4.57508,5.16101 -28.32843,18.05699 -98.24916,53.34065 l -50.94547,25.70829 z m 112.97041,-17.55575 c 44.56817,-44.78954 65.72362,-74.00639 79.18614,-109.36045 6.0578,-15.90844 8.11669,-27.64472 8.14127,-46.40763 0.0277,-21.15283 -1.9699,-29.894877 -11.08952,-48.530387 -11.38368,-23.261987 -28.81218,-41.474628 -50.04433,-52.295911 -6.14364,-3.131196 -8.34483,-6.44462 -8.34298,-12.558558 0.002,-6.6829287 2.51812,-11.5164437 7.49845,-14.4048577 10.64889,-6.175979 35.41357,1.966217 63.71373,20.9479677 33.47256,22.451037 53.71775,48.57638 60.45127,78.009156 9.03368,39.48694 -7.35419,87.03563 -41.08986,119.22038 -16.4416,15.68574 -45.44616,37.57165 -66.57514,50.23546 -1.925,1.15377 -8.79593,5.31053 -15.26873,9.23725 -6.47281,3.92673 -11.92762,7.1395 -12.12181,7.1395 -0.19418,0 -4.79825,2.52181 -10.23126,5.60403 -5.43301,3.08222 -12.92062,7.14036 -16.63914,9.01809 l -6.76094,3.41404 z m -351.74348,-69.6184 c 2.39452,-3.87442 46.02327,-40.80583 62.59251,-52.9841 2.475,-1.81911 7.875,-5.80061 12,-8.84778 6.92899,-5.11851 11.2215,-8.08602 27.5,-19.01138 8.00833,-5.37481 43.84477,-26.84059 54.5,-32.64512 13.92419,-7.585327 63.74641,-32.419143 69.32729,-34.556094 2.84499,-1.089364 8.99771,-3.631506 13.67271,-5.649205 15.74301,-6.794577 27.0214,-11.063755 65.94311,-24.961253 14.54371,-5.19302 26.54949,-9.335474 26.67951,-9.205454 0.13002,0.13002 -3.18045,2.030619 -7.3566,4.223554 -16.98538,8.91918 -45.73348,24.727448 -61.26602,33.689519 -9.075,5.236157 -22.35,12.893316 -29.5,17.015906 -14.33323,8.26434 -43.25954,24.000567 -56.5,30.736617 -4.675,2.37839 -8.95,4.64327 -9.5,5.03306 -0.55,0.38979 -10.45,5.56617 -22,11.50306 -25.54911,13.13267 -35.83653,18.57554 -45,23.80862 -3.85,2.19866 -10.375,5.89944 -14.5,8.22395 -26.68248,15.03607 -69.19114,41.38333 -81.8199,50.71274 -3.00798,2.22213 -5.15565,3.53314 -4.77261,2.91336 z m 188.63715,-51.26014 c 5.95137,-11.8304 16.18046,-25.91202 31.88197,-43.88954 11.01011,-12.60608 30.23957,-31.952337 36.53109,-36.752987 5.63711,-4.30131 21.01977,-13.016429 48.0423,-27.218574 6.6,-3.468741 16.725,-8.876807 22.5,-12.017925 11.76746,-6.400515 17.24069,-9.142006 17.49853,-8.764847 0.64491,0.943348 -1.84361,23.0494 -3.88342,34.49729 -4.48061,25.146156 -10.42039,37.931323 -22.01006,47.375903 -9.24803,7.53634 -22.4657,13.17628 -60.60505,25.85999 -3.025,1.006 -13.6,4.8319 -23.5,8.50199 -9.9,3.6701 -20.925,7.73216 -24.5,9.02681 -6.02499,2.1819 -19.07337,7.21577 -23.33484,9.00225 -1.52092,0.63759 -1.28491,-0.32397 1.37948,-5.62036 z M 532.02724,99.574013 c 1.10851,-4.0982 4.48778,-22.9621 7.44224,-41.54429 1.24999,-7.861859 2.52262,-14.544208 2.82808,-14.849664 0.83839,-0.838387 7.46101,1.504139 14.17639,5.014415 6.96264,3.639523 16.10302,12.367471 20.10698,19.199707 l 2.79765,4.773829 -4.94582,4.394907 c -8.16332,7.254006 -38.77054,26.261093 -42.2884,26.261093 -0.63758,0 -0.67975,-1.16996 -0.11712,-3.249997 z"
     id="path1" />
</svg>
